# xmcd CD database file
#
# Track frame offsets:
#	150
#	16053
#	32833
#	49322
#	61095
#	70514
#	84887
#	98934
#	111932
#	121476
#	134498
#	146038
#	163891
#	177161
#	195439
#
# Disc length: 2775 seconds
#
# Revision: 0
# Processed by: cddbd v1.5.1PL0 Copyright (c) Steve Scherf et al.
# Submitted via: CDex 1.51
#
DISCID=cb0ad50f
DTITLE=Donna Hughes - Somewhere in Time
DYEAR=2001
DGENRE=Country
TTITLE0=01  Somewhere in Time
TTITLE1=02  Loser
TTITLE2=03  Johnny
TTITLE3=04  Yesterday
TTITLE4=05  Southbound Train
TTITLE5=06  Change of Heart
TTITLE6=07  In This Prison 
TTITLE7=08  Autumn Leaves
TTITLE8=09  The Rainbow's End
TTITLE9=10  Simple Man
TTITLE10=11  Unclouded Day (Uncloudy Day)
TTITLE11=12  Farther Along
TTITLE12=13  God Loves His Children
TTITLE13=14  Somewhere Between
TTITLE14=15  Old Homeplace
EXTD=YEAR: 2001
EXTT0=
EXTT1=
EXTT2=
EXTT3=
EXTT4=
EXTT5=
EXTT6=
EXTT7=
EXTT8=
EXTT9=
EXTT10=
EXTT11=
EXTT12=
EXTT13=
EXTT14=
PLAYORDER=
